<svg xmlns="http://www.w3.org/2000/svg" viewBox="0 0 48 48" width="24" height="24">
  <path fill="#25F4EE" d="M41,14.5c-3.7,0-7.1-1.5-9.6-4.1V31c0,6.6-5.4,12-12,12S7.4,37.6,7.4,31S12.8,19,19.4,19
    c1.6,0,3.1,0.3,4.5,0.9v7.6c-1.1-0.7-2.4-1-3.7-1c-4.1,0-7.4,3.3-7.4,7.4S16.1,41.4,20.2,41.4S27.6,38,27.6,34V0h8.3
    C36.2,7.8,43,14.5,41,14.5z"></path>
  <path fill="#FE2C55" d="M36.2,10.9c-1.1-1.3-2-2.8-2.5-4.5h-3.7v23.6c0,4.1-3.3,7.4-7.4,7.4S15.2,34.1,15.2,30
    c0-4.1,3.3-7.4,7.4-7.4c1.3,0,2.6,0.4,3.7,1v-7.6c-1.4-0.5-2.9-0.9-4.5-0.9c-6.6,0-12,5.4-12,12s5.4,12,12,12
    s12-5.4,12-12V6.8C33.9,8.6,35,9.9,36.2,10.9z"></path>
</svg>
