<?xml version="1.0" encoding="utf-8"?>
<!-- Generator: Adobe Illustrator 28.1.0, SVG Export Plug-In . SVG Version: 6.00 Build 0)  -->
<svg version="1.1" id="Layer_1" xmlns="http://www.w3.org/2000/svg" xmlns:xlink="http://www.w3.org/1999/xlink" x="0px" y="0px"
	 viewBox="0 0 64 64" style="enable-background:new 0 0 64 64;" xml:space="preserve">
<g>
	<path d="M36.97,32.4c0-2.61-0.1-4.73,0.03-6.85c0.17-2.72,1.83-4.19,4.84-4.42c1.31-0.1,2.64-0.02,4.18-0.02c0-2.69,0-5.22,0-8.08
		c-3.38,0-6.67-0.36-9.86,0.08c-5.19,0.72-8.42,4.5-8.86,9.79c-0.2,2.51-0.18,5.04-0.13,7.56c0.03,1.46-0.54,1.96-1.93,1.92
		c-2-0.07-4.01-0.02-6.16-0.02c0,3.13,0,5.93,0,9.02c2.6,0,5.13,0,7.87,0c0,7.65,0,15.01,0,22.37C14.75,64.49,1.09,49.44,0.07,34.21
		C-1.06,17.35,12.04,1.74,28.29,0.17c19.08-1.85,33.67,11.9,35.48,28.14c2.28,20.4-12.9,34-26.65,35.69c0-7.39,0-14.76,0-22.44
		c2.34,0,4.71,0,7.25,0c0.47-3.12,0.91-5.97,1.39-9.16C42.79,32.4,40.02,32.4,36.97,32.4z"/>
</g>
</svg>
