<?xml version="1.0" encoding="utf-8"?>
<!-- Generator: Adobe Illustrator 28.1.0, SVG Export Plug-In . SVG Version: 6.00 Build 0)  -->
<svg version="1.1" id="Layer_1" xmlns="http://www.w3.org/2000/svg" xmlns:xlink="http://www.w3.org/1999/xlink" x="0px" y="0px"
	 viewBox="0 0 64 64" style="enable-background:new 0 0 64 64;" xml:space="preserve">
<style type="text/css">
	.st0{fill:#FFFFFF;}
</style>
<g>
	<path d="M64,32C64.05,49.66,49.56,64.22,31.56,64C14.29,63.78-0.12,49.64,0,31.75C0.12,14.14,14.62-0.29,32.57,0
		C49.86,0.29,64.04,14.44,64,32z M17.45,12.63c-2.05,0.58-3.88,1.5-5.52,2.77c-0.86,0.66-1.23,1.57-1.05,2.65
		c0.15,0.92,0.36,1.83,0.58,2.74c1.8,7.39,5.15,14.03,9.76,20.04c4.26,5.56,9.39,10.16,15.41,13.78c0.86,0.52,1.78,0.65,2.68,0.2
		c2.02-1.01,3.68-2.46,5.07-4.23c-0.04-0.07-0.06-0.11-0.09-0.14c-3.51-3.04-7.01-6.08-10.53-9.1c-0.14-0.12-0.41-0.15-0.6-0.11
		c-0.65,0.14-1.3,0.3-1.93,0.5c-0.41,0.13-0.71,0.08-1.05-0.23c-3.98-3.64-7.02-7.93-9.1-12.9c-0.08-0.19-0.02-0.52,0.1-0.71
		c0.36-0.56,0.75-1.1,1.19-1.6c0.28-0.32,0.27-0.59,0.13-0.95c-0.93-2.33-1.85-4.68-2.77-7.01C18.95,16.43,18.2,14.54,17.45,12.63z
		 M48.75,33.57c-0.01-0.06-0.02-0.2-0.06-0.34c-1.89-7.74-6.07-13.95-12.51-18.64c-0.23-0.16-0.51-0.29-0.79-0.33
		c-0.57-0.09-1.15,0.29-1.35,0.8c-0.25,0.64-0.01,1.24,0.7,1.75c4.08,2.94,7.24,6.67,9.32,11.25c0.84,1.86,1.39,3.86,2.04,5.8
		c0.23,0.7,0.8,1.19,1.45,1.11C48.23,34.89,48.74,34.32,48.75,33.57z M40.54,35.54c0.89-0.01,1.54-0.8,1.25-1.66
		c-0.51-1.51-1.02-3.03-1.71-4.47c-1.64-3.43-4.02-6.29-7.01-8.63c-0.73-0.57-1.49-0.51-1.99,0.11c-0.5,0.63-0.38,1.39,0.34,1.96
		c3.87,3.07,6.48,6.97,7.82,11.72C39.43,35.18,39.93,35.55,40.54,35.54z M35.26,40.72c3.35,2.9,6.67,5.76,10,8.64
		c0.19-0.26,0.34-0.46,0.49-0.67c0.81-1.12,0.7-2.04-0.35-2.95c-0.72-0.63-1.45-1.25-2.17-1.88c-0.83-0.72-1.72-1.39-2.49-2.17
		C39.14,40.08,37.34,39.81,35.26,40.72z M23.67,24.44c1.25-1.36,1.9-2.78,1.24-4.52c-0.86-2.27-1.76-4.53-2.67-6.78
		c-0.31-0.78-1.04-1.29-1.79-1.22c-0.53,0.05-1.04,0.22-1.59,0.34C20.48,16.35,22.06,20.36,23.67,24.44z"/>
	<path class="st0" d="M17.45,12.63c0.76,1.91,1.5,3.8,2.25,5.69c0.92,2.34,1.84,4.68,2.77,7.01c0.15,0.36,0.16,0.63-0.13,0.95
		c-0.44,0.5-0.83,1.04-1.19,1.6c-0.12,0.19-0.18,0.51-0.1,0.71c2.08,4.97,5.12,9.27,9.1,12.9c0.34,0.31,0.63,0.36,1.05,0.23
		c0.64-0.2,1.28-0.36,1.93-0.5c0.19-0.04,0.47-0.01,0.6,0.11c3.52,3.02,7.03,6.07,10.53,9.1c0.03,0.03,0.04,0.07,0.09,0.14
		c-1.39,1.76-3.05,3.22-5.07,4.23c-0.9,0.45-1.82,0.32-2.68-0.2c-6.01-3.61-11.14-8.21-15.41-13.78
		c-4.61-6.02-7.96-12.66-9.76-20.04c-0.22-0.91-0.42-1.82-0.58-2.74c-0.18-1.07,0.19-1.98,1.05-2.65
		C13.57,14.13,15.4,13.21,17.45,12.63z"/>
	<path class="st0" d="M48.75,33.57c-0.01,0.75-0.52,1.32-1.19,1.4c-0.65,0.08-1.22-0.4-1.45-1.11c-0.65-1.94-1.2-3.94-2.04-5.8
		c-2.08-4.58-5.24-8.31-9.32-11.25c-0.71-0.51-0.95-1.11-0.7-1.75c0.2-0.51,0.78-0.88,1.35-0.8c0.27,0.04,0.56,0.16,0.79,0.33
		c6.44,4.69,10.62,10.9,12.51,18.64C48.73,33.36,48.74,33.51,48.75,33.57z"/>
	<path class="st0" d="M40.54,35.54c-0.61,0.01-1.11-0.36-1.29-0.97c-1.34-4.75-3.96-8.65-7.82-11.72c-0.72-0.57-0.84-1.33-0.34-1.96
		c0.5-0.63,1.25-0.69,1.99-0.11c3,2.34,5.37,5.2,7.01,8.63c0.69,1.43,1.2,2.96,1.71,4.47C42.09,34.74,41.43,35.53,40.54,35.54z"/>
	<path class="st0" d="M35.26,40.72c2.09-0.91,3.89-0.64,5.48,0.97c0.77,0.78,1.66,1.45,2.49,2.17c0.72,0.63,1.45,1.25,2.17,1.88
		c1.04,0.91,1.15,1.83,0.35,2.95c-0.15,0.2-0.29,0.4-0.49,0.67C41.92,46.48,38.61,43.62,35.26,40.72z"/>
	<path class="st0" d="M23.67,24.44c-1.61-4.07-3.19-8.09-4.8-12.18c0.55-0.12,1.07-0.29,1.59-0.34c0.75-0.07,1.47,0.43,1.79,1.22
		c0.9,2.26,1.8,4.51,2.67,6.78C25.57,21.65,24.92,23.08,23.67,24.44z"/>
</g>
</svg>
